<?xml version="1.0" encoding="UTF-8" standalone="no"?>
<svg
   viewBox="0 0 24 24"
   width="384px"
   height="384px"
   version="1.1"
   id="svg3"
   sodipodi:docname="zalo.svg"
   inkscape:version="1.4 (e7c3feb1, 2024-10-09)"
   xmlns:inkscape="http://www.inkscape.org/namespaces/inkscape"
   xmlns:sodipodi="http://sodipodi.sourceforge.net/DTD/sodipodi-0.dtd"
   xmlns="http://www.w3.org/2000/svg"
   xmlns:svg="http://www.w3.org/2000/svg">
  <defs
     id="defs3" />
  <sodipodi:namedview
     id="namedview3"
     pagecolor="#000000"
     bordercolor="#000000"
     borderopacity="0.25"
     inkscape:showpageshadow="2"
     inkscape:pageopacity="0.0"
     inkscape:pagecheckerboard="0"
     inkscape:deskcolor="#d1d1d1"
     inkscape:zoom="2.1704807"
     inkscape:cx="167.70478"
     inkscape:cy="180.83551"
     inkscape:window-width="2080"
     inkscape:window-height="1182"
     inkscape:window-x="1667"
     inkscape:window-y="25"
     inkscape:window-maximized="0"
     inkscape:current-layer="svg3" />
  <path
     fill="#aaaaaa"
     d="m 18.060265,5.5634859 h -6.062444 v 1.4464496 l 3.581784,-0.022576 -3.77017,4.8456485 h 0.02043 c -0.122567,0.164247 -0.208819,0.363689 -0.208819,0.586595 v 0.19475 h 5.683399 c 0.208815,0 0.379045,-0.175979 0.379045,-0.391845 l 0.01131,-1.099757 -3.401172,-0.01131 3.578273,-4.7666336 h -0.02043 C 17.97404,6.180561 18.06029,5.981119 18.06029,5.7582131 Z"
     id="path1"
     style="stroke-width:2.30774"
     sodipodi:nodetypes="ccccccscssccccsc" />
  <path
     fill="none"
     stroke="#aaaaaa"
     stroke-miterlimit="10"
     stroke-width="2"
     d="M 17.845494,21.234343 H 6.1903989 c -1.9312494,0 -3.4965288,-1.565279 -3.4965288,-3.496529 V 6.0827179 c 0,-1.9312494 1.5652794,-3.4965288 3.4965288,-3.4965288 H 17.845494 c 1.93125,0 3.496529,1.5652794 3.496529,3.4965288 V 17.737814 c 0,1.93125 -1.565279,3.496529 -3.496529,3.496529 z"
     id="path2" />
  <path
     fill="#aaaaaa"
     d="m 15.743429,17.959264 c -1.756423,0 -3.282563,-0.667936 -4.829195,-1.517592 L 7.843444,17.224124 8.3487381,14.14395 C 7.2671452,12.455126 5.974261,10.277543 5.974261,8.2670391 c 0,-2.3776396 0.2516199,-4.1652793 1.7364791,-6.0161085 l 1.2636074,0.700528 c -1.1713369,1.459218 -1.3032661,2.9567831 -1.3032661,4.832088 0,1.6829959 0.8027558,3.7373694 1.7759566,5.1196634 l 0.3459675,0.448063 -0.4014566,2.109972 2.0739311,-0.628471 0.317629,0.224998 c 1.263412,0.750588 3.039423,1.330622 4.492814,1.330622 1.875305,0 3.376207,-0.500755 4.83659,-1.670926 l 0.93097,1.454949 c -1.851995,1.483694 -3.609329,1.786852 -5.985803,1.786852 z"
     id="path3"
     style="stroke-width:1.16551"
     sodipodi:nodetypes="ccccsccscccccscccc" />
</svg>
